<svg width="195" height="40" viewBox="0 0 195 40" fill="none" xmlns="http://www.w3.org/2000/svg">
<g clip-path="url(#clip0_292_3501)">
<g clip-path="url(#clip1_292_3501)">
<path d="M18.5147 5C15.4686 5 12.5473 6.21005 10.3934 8.36396L3.36396 15.3934C1.21005 17.5473 0 20.4686 0 23.5147C0 29.8579 5.14214 35 11.4853 35C14.5314 35 17.4527 33.7899 19.6066 31.636L24.4689 26.7737C24.4689 26.7736 24.469 26.7738 24.4689 26.7737L38.636 12.6066C39.6647 11.5779 41.0599 11 42.5147 11C44.9503 11 47.0152 12.5874 47.7311 14.7841L52.2022 10.313C50.1625 7.11834 46.586 5 42.5147 5C39.4686 5 36.5473 6.21005 34.3934 8.36396L15.364 27.3934C14.3353 28.4221 12.9401 29 11.4853 29C8.45584 29 6 26.5442 6 23.5147C6 22.0599 6.57791 20.6647 7.6066 19.636L14.636 12.6066C15.6647 11.5779 17.0599 11 18.5147 11C20.9504 11 23.0152 12.5875 23.7311 14.7842L28.2023 10.3131C26.1626 7.1184 22.5861 5 18.5147 5Z" fill="#374151"/>
<path d="M39.3658 27.3934C38.3371 28.4221 36.9419 29 35.4871 29C33.0518 29 30.9871 27.413 30.271 25.2167L25.8 29.6877C27.8398 32.8819 31.4161 35 35.4871 35C38.5332 35 41.4545 33.7899 43.6084 31.636L62.6378 12.6066C63.6665 11.5779 65.0617 11 66.5165 11C69.546 11 72.0018 13.4558 72.0018 16.4853C72.0018 17.9401 71.424 19.3353 70.3952 20.364L63.3658 27.3934C62.3371 28.4221 60.9419 29 59.4871 29C57.0516 29 54.9868 27.4127 54.2708 25.2162L49.7998 29.6873C51.8395 32.8818 55.4159 35 59.4871 35C62.5332 35 65.4545 33.7899 67.6084 31.636L74.6378 24.6066C76.7917 22.4527 78.0018 19.5314 78.0018 16.4853C78.0018 10.1421 72.8597 5 66.5165 5C63.4704 5 60.5491 6.21005 58.3952 8.36396L39.3658 27.3934Z" fill="#374151"/>
</g>
<path d="M94.0247 33H88.9622L98.1795 6.81818H104.035L113.265 33H108.202L101.209 12.1875H101.005L94.0247 33ZM94.1909 22.7344H107.998V26.544H94.1909V22.7344ZM119.762 33L112.373 6.81818H117.474L122.191 26.0582H122.434L127.471 6.81818H132.112L137.161 26.071H137.392L142.109 6.81818H147.21L139.82 33H135.142L129.9 14.6293H129.695L124.441 33H119.762ZM151.4 33H146.337L155.555 6.81818H161.41L170.64 33H165.577L158.584 12.1875H158.38L151.4 33ZM151.566 22.7344H165.373V26.544H151.566V22.7344ZM174.088 33V6.81818H183.906C185.918 6.81818 187.605 7.16761 188.969 7.86648C190.341 8.56534 191.377 9.54545 192.075 10.8068C192.783 12.0597 193.137 13.5213 193.137 15.1918C193.137 16.8707 192.779 18.3281 192.063 19.5639C191.355 20.7912 190.311 21.7415 188.931 22.4148C187.55 23.0795 185.854 23.4119 183.843 23.4119H176.85V19.4744H183.203C184.379 19.4744 185.343 19.3125 186.093 18.9886C186.843 18.6562 187.396 18.1747 187.754 17.544C188.121 16.9048 188.304 16.1207 188.304 15.1918C188.304 14.2628 188.121 13.4702 187.754 12.8139C187.388 12.1491 186.83 11.6463 186.08 11.3054C185.33 10.956 184.362 10.7812 183.178 10.7812H178.831V33H174.088ZM187.614 21.1364L194.095 33H188.803L182.436 21.1364H187.614Z" fill="#374151"/>
</g>
<defs>
<clipPath id="clip0_292_3501">
<rect width="195" height="40" fill="white"/>
</clipPath>
<clipPath id="clip1_292_3501">
<rect width="78" height="30" fill="white" transform="translate(0 5)"/>
</clipPath>
</defs>
</svg>
